<svg id="Layer_1" data-name="Layer 1" xmlns="http://www.w3.org/2000/svg" width="4.9in" height="4.98in" viewBox="0 0 352.57 358.73"><g id="Group_3480" data-name="Group 3480"><g id="cube_04"><path id="Path_11741-2" data-name="Path 11741-2" d="M277.43,221V134.53L202.56,91.3,127.7,134.53V221l74.86,43.22Z" transform="translate(-3.71 -0.64)" fill="#6ccace"/><path id="Path_11742-2" data-name="Path 11742-2" d="M202.56,177.75,127.7,134.53,202.56,91.3l74.87,43.23Z" transform="translate(-3.71 -0.64)" fill="#86d1d7"/><path id="Path_11743-2" data-name="Path 11743-2" d="M277.43,221l-74.87,43.22V177.75l74.87-43.23Z" transform="translate(-3.71 -0.64)" fill="#5ac5c2"/><path id="Path_11744-2" data-name="Path 11744-2" d="M202.56,264.19,127.7,221V134.52l74.86,43.23Z" transform="translate(-3.71 -0.64)" fill="#6ccace"/></g><g id="cube_04-2"><path id="Path_11741-2-2" data-name="Path 11741-2-2" d="M277.43,130.3V43.86L202.56.64,127.7,43.86v86.45l74.86,43.21Z" transform="translate(-3.71 -0.64)" fill="#6ccace"/><path id="Path_11742-2-2" data-name="Path 11742-2-2" d="M202.56,87.08,127.7,43.86,202.56.64l74.87,43.22Z" transform="translate(-3.71 -0.64)" fill="#86d1d7"/><path id="Path_11743-2-2" data-name="Path 11743-2-2" d="M277.43,130.3l-74.87,43.23V87.08l74.87-43.22Z" transform="translate(-3.71 -0.64)" fill="#5ac5c2"/><path id="Path_11744-2-2" data-name="Path 11744-2-2" d="M202.56,173.53,127.7,130.3V43.86l74.86,43.22Z" transform="translate(-3.71 -0.64)" fill="#6ccace"/></g><g id="cube_04-3"><path id="Path_11741-2-3" data-name="Path 11741-2-3" d="M356.29,269.6V183.16l-74.87-43.22-74.86,43.22v86.45l74.86,43.21Z" transform="translate(-3.71 -0.64)" fill="#6ccace"/><path id="Path_11742-2-3" data-name="Path 11742-2-3" d="M281.42,226.39l-74.87-43.23,74.87-43.22,74.87,43.22Z" transform="translate(-3.71 -0.64)" fill="#86d1d7"/><path id="Path_11743-2-3" data-name="Path 11743-2-3" d="M356.28,269.61l-74.86,43.22V226.39l74.87-43.23Z" transform="translate(-3.71 -0.64)" fill="#5ac5c2"/><path id="Path_11744-2-3" data-name="Path 11744-2-3" d="M281.42,312.83l-74.87-43.22V183.16l74.87,43.23Z" transform="translate(-3.71 -0.64)" fill="#6ccace"/></g><g id="cube_04-4"><path id="Path_11741-2-4" data-name="Path 11741-2-4" d="M356.29,176.83V90.39L281.42,47.17,206.56,90.39v86.45l74.86,43.21Z" transform="translate(-3.71 -0.64)" fill="#6ccace"/><path id="Path_11742-2-4" data-name="Path 11742-2-4" d="M281.42,133.61,206.55,90.39l74.87-43.22,74.87,43.22Z" transform="translate(-3.71 -0.64)" fill="#86d1d7"/><path id="Path_11743-2-4" data-name="Path 11743-2-4" d="M356.28,176.84l-74.86,43.22V133.61l74.87-43.22Z" transform="translate(-3.71 -0.64)" fill="#5ac5c2"/><path id="Path_11744-2-4" data-name="Path 11744-2-4" d="M281.42,220.06l-74.87-43.22V90.39l74.87,43.22Z" transform="translate(-3.71 -0.64)" fill="#6ccace"/></g><g id="cube_04-5"><path id="Path_11741-2-5" data-name="Path 11741-2-5" d="M196.24,267.5V181.06l-74.87-43.23L46.51,181.06v86.45l74.86,43.21Z" transform="translate(-3.71 -0.64)" fill="#6ccace"/><path id="Path_11742-2-5" data-name="Path 11742-2-5" d="M121.37,224.28,46.5,181.06l74.87-43.23,74.87,43.23Z" transform="translate(-3.71 -0.64)" fill="#86d1d7"/><path id="Path_11743-2-5" data-name="Path 11743-2-5" d="M196.24,267.5l-74.87,43.22V224.28l74.87-43.23Z" transform="translate(-3.71 -0.64)" fill="#5ac5c2"/><path id="Path_11744-2-5" data-name="Path 11744-2-5" d="M121.37,310.72,46.5,267.5V181.05l74.87,43.23Z" transform="translate(-3.71 -0.64)" fill="#6ccace"/></g><g id="cube_04-6"><path id="Path_11741-2-6" data-name="Path 11741-2-6" d="M153.45,153V66.52L78.58,23.29,3.72,66.52V153l74.86,43.22Z" transform="translate(-3.71 -0.64)" fill="#6ccace"/><path id="Path_11742-2-6" data-name="Path 11742-2-6" d="M78.58,109.74,3.71,66.52,78.58,23.29l74.87,43.23Z" transform="translate(-3.71 -0.64)" fill="#86d1d7"/><path id="Path_11743-2-6" data-name="Path 11743-2-6" d="M153.44,153,78.58,196.18V109.74l74.87-43.23Z" transform="translate(-3.71 -0.64)" fill="#5ac5c2"/><path id="Path_11744-2-6" data-name="Path 11744-2-6" d="M78.58,196.18,3.71,153V66.51l74.87,43.23Z" transform="translate(-3.71 -0.64)" fill="#6ccace"/></g><g id="cube_04-7"><path id="Path_11741-2-7" data-name="Path 11741-2-7" d="M277.43,316.14V229.7l-74.87-43.23L127.7,229.7v86.44l74.86,43.22Z" transform="translate(-3.71 -0.64)" fill="#6ccace"/><path id="Path_11742-2-7" data-name="Path 11742-2-7" d="M202.56,272.92,127.7,229.7l74.86-43.23,74.87,43.23Z" transform="translate(-3.71 -0.64)" fill="#86d1d7"/><path id="Path_11743-2-7" data-name="Path 11743-2-7" d="M277.43,316.14l-74.87,43.22V272.92l74.87-43.23Z" transform="translate(-3.71 -0.64)" fill="#5ac5c2"/><path id="Path_11744-2-7" data-name="Path 11744-2-7" d="M202.56,359.36,127.7,316.14V229.69l74.86,43.23Z" transform="translate(-3.71 -0.64)" fill="#6ccace"/></g><g id="cube_04-8"><path id="Path_11741-2-8" data-name="Path 11741-2-8" d="M277.43,225.47V139L202.56,95.81,127.7,139v86.45l74.86,43.21Z" transform="translate(-3.71 -0.64)" fill="#6ccace"/><path id="Path_11742-2-8" data-name="Path 11742-2-8" d="M202.56,182.25,127.7,139l74.86-43.22L277.43,139Z" transform="translate(-3.71 -0.64)" fill="#86d1d7"/><path id="Path_11743-2-8" data-name="Path 11743-2-8" d="M277.43,225.47,202.56,268.7V182.25L277.43,139Z" transform="translate(-3.71 -0.64)" fill="#5ac5c2"/><path id="Path_11744-2-8" data-name="Path 11744-2-8" d="M202.56,268.7,127.7,225.47V139l74.86,43.22Z" transform="translate(-3.71 -0.64)" fill="#6ccace"/></g></g></svg>