<svg id="Layer_1" data-name="Layer 1" xmlns="http://www.w3.org/2000/svg" width="5.94in" height="1.2in" viewBox="0 0 427.65 86.28"><path d="M64.6,72.69A23.48,23.48,0,0,0,41.18,96.1v39.22H56.87V96.1a7.75,7.75,0,0,1,7.73-7.73H96.32A23.12,23.12,0,0,0,95,96.1v15.8a23.52,23.52,0,0,0,23.64,23.42h39.21a7.87,7.87,0,0,1-7.84,7.85H95V159h55a23.6,23.6,0,0,0,23.42-23.64V72.69Zm93.24,47.06H118.63a7.87,7.87,0,0,1-7.84-7.85V96.1a7.77,7.77,0,0,1,7.84-7.73h39.21Z" transform="translate(-41.18 -72.69)" fill="#ba122b"/><path d="M264.17,72.71h12.6v51.64a11.08,11.08,0,0,1-11,10.9,10.82,10.82,0,0,1-6.61-2.33L201.64,87v48.24H189.13V83.61a10.91,10.91,0,0,1,11-10.9A10.5,10.5,0,0,1,206.73,75L264.17,121Z" transform="translate(-41.18 -72.69)" fill="#fff"/><path d="M418.81,100.85a3.1,3.1,0,0,0,3.12,3.13H453.2a15.64,15.64,0,0,1,0,31.27H381.29a18.76,18.76,0,0,1-18.85-18.68V97.81H300a6.18,6.18,0,0,0-6.16,6.17h49.93v12.59H293.83a6.26,6.26,0,0,0,6.16,6.26h43.77v12.42H300a18.74,18.74,0,0,1-18.76-18.68V104A18.8,18.8,0,0,1,300,85.31h62.45V72.8H375V85.31H393.7v12.5H375v18.76a6.28,6.28,0,0,0,6.26,6.26H453.2a3.16,3.16,0,0,0,3.12-3.13,3.1,3.1,0,0,0-3.12-3.13H421.93a15.63,15.63,0,1,1,0-31.26h46.9v12.5h-46.9A3.09,3.09,0,0,0,418.81,100.85Z" transform="translate(-41.18 -72.69)" fill="#fff"/></svg>
