<?xml version="1.0" encoding="utf-8"?>
<!-- Generator: Adobe Illustrator 25.3.1, SVG Export Plug-In . SVG Version: 6.00 Build 0)  -->
<svg version="1.1" id="Layer_1" xmlns="http://www.w3.org/2000/svg" xmlns:xlink="http://www.w3.org/1999/xlink" x="0px" y="0px"
	 viewBox="0 0 360 360" style="enable-background:new 0 0 360 360;" xml:space="preserve">
<style type="text/css">
	.st0{fill:#FFFFFF;}
	.st1{fill:#CA0023;}
</style>
<g>
	<path class="st0" d="M252.5,127c-16,0-29,12.9-29,28.7v19.4c0,16,13.1,28.8,29,28.8h48.1c0,5.4-4.4,9.6-9.6,9.6h-57.5l-36.5-32.6
		l-18.8-16.9l-41.4-37h-0.2v0H69c-15.8,0-28.8,12.9-28.8,28.7v48.1h19.3v-48.1c0-5.2,4.3-9.5,9.5-9.5h57.4l34.8,31.1L181,195l0,0
		l6.3,5.7l36,32.3H291c15.8,0,28.7-13.1,28.7-29V127H252.5z M300.6,184.8h-48.1c-5.4,0-9.6-4.4-9.6-9.6v-19.4c0-5.2,4.3-9.5,9.6-9.5
		h48.1V184.8z"/>
	<polygon class="st1" points="147.5,171.1 100.4,213.6 132.2,213.6 163.4,185.3 	"/>
	<polygon class="st1" points="185.9,165.1 228,127.1 196.2,127.1 169.9,150.8 	"/>
</g>
</svg>
